# xmcd CD database file
#
# Track frame offsets:
#	180
#	25341
#	48396
#	72662
#	90292
#	111645
#	136889
#	149901
#	171475
#
# Disc length: 2484 seconds
#
# Revision: 0
# Processed by: cddbd v1.5.2PL0 Copyright (c) Steve Scherf et al.
# Submitted via: CDex 1.51
#
DISCID=8d09b209
DTITLE=John Altenburgh - Heartland '95
DYEAR=1995
DGENRE=Jazz
TTITLE0=Sorry, Can't Wait
TTITLE1=Three-One
TTITLE2=No Better Days Than These
TTITLE3=Main Street '38
TTITLE4=It's Only A Rental
TTITLE5=The Last Days of Mr. Keegan
TTITLE6=The '66 Super 90 Blues
TTITLE7=Last Time I Saw Chicago
TTITLE8=The Final Song
EXTD=YEAR: 1995
EXTT0=
EXTT1=
EXTT2=
EXTT3=
EXTT4=
EXTT5=
EXTT6=
EXTT7=
EXTT8=
PLAYORDER=
